<?xml version="1.0" encoding="UTF-8" standalone="no"?>
<!-- Created with Inkscape (http://www.inkscape.org/) -->

<svg
   width="1536"
   height="512"
   viewBox="0 0 406.39998 135.46667"
   version="1.1"
   id="svg1"
   xml:space="preserve"
   sodipodi:docname="logo-text.svg"
   inkscape:version="1.4.2 (ebf0e940d0, 2025-05-08)"
   xmlns:inkscape="http://www.inkscape.org/namespaces/inkscape"
   xmlns:sodipodi="http://sodipodi.sourceforge.net/DTD/sodipodi-0.dtd"
   xmlns="http://www.w3.org/2000/svg"
   xmlns:svg="http://www.w3.org/2000/svg"><sodipodi:namedview
     id="namedview1"
     pagecolor="#505050"
     bordercolor="#eeeeee"
     borderopacity="1"
     inkscape:showpageshadow="0"
     inkscape:pageopacity="0"
     inkscape:pagecheckerboard="0"
     inkscape:deskcolor="#505050"
     inkscape:zoom="0.30935922"
     inkscape:cx="507.50063"
     inkscape:cy="114.75333"
     inkscape:window-width="1868"
     inkscape:window-height="1028"
     inkscape:window-x="0"
     inkscape:window-y="0"
     inkscape:window-maximized="1"
     inkscape:current-layer="svg1" /><defs
     id="defs1" /><g
     id="layer1"
     transform="translate(-8.5833283)"><path
       d="M 70.501123,12.071615 C 48.383384,11.790751 38.666702,47.210045 38.538216,67.733333 38.685057,91.18852 51.355115,134.09968 80.747526,120.94146 110.13994,107.78323 90.425712,87.140631 90.829598,67.733333 90.680427,60.565434 93.275738,53.229173 95.127527,46.16359 A 10.980208,13.361458 0 0 1 85.725,32.940625 10.980208,13.361458 0 0 1 91.298303,21.311361 C 88.831291,18.88446 85.406221,16.610789 80.747526,14.525212 77.073475,12.880433 73.6608,12.111738 70.501123,12.071615 Z"
       style="opacity:1;fill:#ffd42a;stroke-width:0.383"
       id="path4" /><path
       d="M 91.298303,21.311361 A 10.980208,13.361458 0 0 0 85.725,32.940625 10.980208,13.361458 0 0 0 95.127527,46.16359 c 2.367301,-9.032542 3.519825,-17.622669 -3.829224,-24.852229 z"
       style="fill:#fff6d5;stroke:none;stroke-width:0.383"
       id="path6" /></g><path
     d="m 104.67985,83.87233 h 22.68687 V 77.829566 H 111.51771 V 47.085681 h -6.83786 z m 36.30964,0.424053 c 3.55145,0 6.94388,-1.590201 9.27617,-4.505569 l -1.00713,-4.134523 c -1.53719,1.749221 -3.65746,2.809355 -5.83073,2.809355 -3.65747,0 -4.7176,-2.809355 -4.7176,-5.353676 V 58.111074 h -6.78486 v 16.432077 c 0,5.989757 3.71047,9.753232 9.06415,9.753232 z m 9.22316,-0.424053 h 4.87662 V 58.111074 h -6.78486 V 79.36676 Z m 25.39017,0.530067 c 6.99688,0 11.92651,-5.671717 11.92651,-13.781742 0,-7.685971 -4.61159,-13.039648 -11.23742,-13.039648 -4.02851,0 -7.47395,2.120268 -9.38219,5.61871 l 1.69621,3.127395 c 1.32517,-1.908241 3.49845,-3.021381 5.83074,-3.021381 3.81648,0 6.25479,3.021381 6.25479,7.791984 0,4.66459 -2.22628,7.632965 -5.93675,7.632965 -2.86236,0 -5.24766,-1.749221 -6.20178,-4.399556 l -1.90824,3.975502 c 1.48418,3.869489 4.7706,6.095771 8.95813,6.095771 z m -12.88063,10.972386 h 6.51982 V 62.82867 l -1.96124,-4.717596 h -4.55858 z M 193.62511,83.87233 h 6.73185 V 58.111074 h -6.73185 z m 3.39243,-30.478852 c 2.54432,0 4.18752,-1.643208 4.18752,-4.187529 0,-2.544322 -1.6432,-4.187529 -4.18752,-4.187529 -2.49132,0 -4.13453,1.643207 -4.13453,4.187529 0,2.544321 1.64321,4.187529 4.13453,4.187529 z m 27.9875,30.478852 h 6.78485 V 68.023327 c 0,-6.413811 -3.60445,-10.336306 -9.43519,-10.336306 -3.71047,0 -7.1559,1.643207 -9.5412,4.558576 l 1.00712,4.134522 c 1.69622,-1.802228 3.81648,-2.809355 6.20179,-2.809355 3.28641,0 4.98263,1.855235 4.98263,5.353677 z m -16.96215,0 h 6.73185 V 62.66965 l -1.90824,-4.558576 h -4.82361 z m 42.51133,0 h 22.68687 v -6.042764 h -15.849 V 47.085681 h -6.83787 z m 27.77557,0 h 6.73185 V 58.111074 h -6.73185 z m 3.39243,-30.478852 c 2.54432,0 4.18753,-1.643208 4.18753,-4.187529 0,-2.544322 -1.64321,-4.187529 -4.18753,-4.187529 -2.49132,0 -4.13453,1.643207 -4.13453,4.187529 0,2.544321 1.64321,4.187529 4.13453,4.187529 z m 27.9875,30.478852 h 6.78485 V 68.023327 c 0,-6.413811 -3.60445,-10.336306 -9.43519,-10.336306 -3.71047,0 -7.1559,1.643207 -9.5412,4.558576 l 1.00712,4.134522 c 1.69622,-1.802228 3.81649,-2.809355 6.20179,-2.809355 3.28641,0 4.98263,1.855235 4.98263,5.353677 z m -16.96215,0 h 6.73185 V 62.66965 l -1.90824,-4.558576 h -4.82361 z m 39.43699,0.424053 c 3.55145,0 6.94388,-1.590201 9.27617,-4.505569 l -1.00712,-4.134523 c -1.5372,1.749221 -3.65747,2.809355 -5.83074,2.809355 -3.65746,0 -4.7176,-2.809355 -4.7176,-5.353676 V 58.111074 h -6.78486 v 16.432077 c 0,5.989757 3.71047,9.753232 9.06415,9.753232 z m 9.22317,-0.424053 h 4.87661 V 58.111074 h -6.78486 V 79.36676 Z m 8.90508,0 h 7.26192 l 7.1559,-10.60134 11.71448,-15.159916 h -7.57995 l -6.89088,10.230293 z m 17.75725,0 h 7.73897 L 364.62462,68.341367 357.94578,58.111074 h -7.73898 l 10.01826,13.834749 z"
     id="text1"
     style="font-weight:bold;font-size:53.0067px;font-family:Cantarell;-inkscape-font-specification:'Cantarell Bold';fill:#ffffff;stroke-width:6.39418"
     aria-label="Lupin Linux" /></svg>
