<?xml version="1.0" encoding="UTF-8" standalone="no"?>
<!-- Created with Inkscape (http://www.inkscape.org/) -->

<svg
   width="512"
   height="512"
   viewBox="0 0 135.46666 135.46667"
   version="1.1"
   id="svg1"
   xml:space="preserve"
   xmlns="http://www.w3.org/2000/svg"
   xmlns:svg="http://www.w3.org/2000/svg"><defs
     id="defs1" /><g
     id="layer1"><path
       d="M 70.501123,12.071615 C 48.383384,11.790751 38.666702,47.210045 38.538216,67.733333 38.685057,91.18852 51.355115,134.09968 80.747526,120.94146 110.13994,107.78323 90.425712,87.140631 90.829598,67.733333 90.680427,60.565434 93.275738,53.229173 95.127527,46.16359 A 10.980208,13.361458 0 0 1 85.725,32.940625 10.980208,13.361458 0 0 1 91.298303,21.311361 C 88.831291,18.88446 85.406221,16.610789 80.747526,14.525212 77.073475,12.880433 73.6608,12.111738 70.501123,12.071615 Z"
       style="opacity:1;fill:#ffd42a;stroke-width:0.383"
       id="path4" /><path
       d="M 91.298303,21.311361 A 10.980208,13.361458 0 0 0 85.725,32.940625 10.980208,13.361458 0 0 0 95.127527,46.16359 c 2.367301,-9.032542 3.519825,-17.622669 -3.829224,-24.852229 z"
       style="fill:#fff6d5;stroke-width:0.383;stroke:none"
       id="path6" /></g></svg>
